<svg id="Layer_1" height="512" viewBox="0 0 48 48" width="512" xmlns="http://www.w3.org/2000/svg" data-name="Layer 1"><path d="m14.19162 12.73547a1.49965 1.49965 0 1 1 2.11671 2.12492l-9.18333 9.13747 9.18331 9.14179a1.4996 1.4996 0 1 1 -2.11671 2.12479l-10.25-10.19987a1.50392 1.50392 0 0 1 0-2.12923l10.25-10.19987zm17.5 2.12492 9.18338 9.13747-9.18331 9.14179a1.49958 1.49958 0 1 0 2.11665 2.12479l10.25-10.19987a1.50392 1.50392 0 0 0 0-2.12923l-10.25-10.19987a1.49962 1.49962 0 1 0 -2.11665 2.12492zm-8.44575 22.39161 4.46243-26a1.49844 1.49844 0 1 0 -2.95417-.50417l-4.46249 26a1.49847 1.49847 0 1 0 2.95423.50417z" fill-rule="evenodd"/></svg>