<?xml version="1.0" encoding="UTF-8" standalone="no"?><!DOCTYPE svg PUBLIC "-//W3C//DTD SVG 1.1//EN" "http://www.w3.org/Graphics/SVG/1.1/DTD/svg11.dtd"><svg width="100%" height="100%" viewBox="0 0 197 197" version="1.1" xmlns="http://www.w3.org/2000/svg" xmlns:xlink="http://www.w3.org/1999/xlink" xml:space="preserve" xmlns:serif="http://www.serif.com/" style="fill-rule:evenodd;clip-rule:evenodd;stroke-linejoin:round;stroke-miterlimit:2;"><path d="M150.322,35.094c-6.367,0 -11.528,5.162 -11.528,11.523c0,6.366 5.161,11.527 11.528,11.527c6.361,0 11.522,-5.161 11.522,-11.527c0,-6.361 -5.161,-11.523 -11.522,-11.523Z" style="fill-rule:nonzero;"/><path d="M99.089,129.289c-17.1,-0 -31.011,-13.911 -31.011,-31.006c-0,-17.1 13.911,-31.011 31.011,-31.011c17.094,0 31.005,13.911 31.005,31.011c0,17.095 -13.911,31.006 -31.005,31.006Zm-0,-79.417c-26.695,0 -48.411,21.717 -48.411,48.411c-0,26.689 21.716,48.406 48.411,48.406c26.689,-0 48.406,-21.717 48.406,-48.406c-0,-26.694 -21.717,-48.411 -48.406,-48.411Z" style="fill-rule:nonzero;"/><path d="M59.039,18.494c-22.361,0 -40.55,18.189 -40.55,40.55l-0,78.478c-0,22.361 18.189,40.55 40.55,40.55l78.478,0c22.361,0 40.555,-18.189 40.555,-40.55l0,-78.478c0,-22.361 -18.194,-40.55 -40.555,-40.55l-78.478,0Zm78.478,178.073l-78.478,-0c-32.561,-0 -59.039,-26.489 -59.039,-59.045l0,-78.478c0,-32.561 26.478,-59.044 59.039,-59.044l78.478,-0c32.555,-0 59.044,26.483 59.044,59.044l0,78.478c0,32.556 -26.489,59.045 -59.044,59.045Z" style="fill-rule:nonzero;"/></svg>