<?xml version="1.0" encoding="UTF-8" standalone="no"?><!DOCTYPE svg PUBLIC "-//W3C//DTD SVG 1.1//EN" "http://www.w3.org/Graphics/SVG/1.1/DTD/svg11.dtd"><svg width="100%" height="100%" viewBox="0 0 4241 1373" version="1.1" xmlns="http://www.w3.org/2000/svg" xmlns:xlink="http://www.w3.org/1999/xlink" xml:space="preserve" xmlns:serif="http://www.serif.com/" style="fill-rule:evenodd;clip-rule:evenodd;stroke-linejoin:round;stroke-miterlimit:2;"><path d="M735.33,640.91l69.623,-277.537l-184.071,0l-69.623,277.537l184.071,0Zm-275.63,0l69.623,-277.537l-184.071,0l-69.622,277.537l184.07,0Zm-275.629,0l69.623,-277.537l-184.071,0l-69.623,277.537l184.071,0Zm620.882,-640.91l-644.725,-0l-7.63,30.52l698.134,-0c-14.624,-16.532 -29.884,-26.705 -45.779,-30.52Zm-182.164,354.79l184.071,-0l16.214,-63.901l-184.071,0l-16.214,63.901Zm-551.259,-0l184.071,-0l16.214,-63.901l-184.071,0l-16.214,63.901Zm275.63,-0l184.071,-0l16.213,-63.901l-184.071,0l-16.213,63.901Zm295.658,-81.068l184.071,0l13.352,-55.317l-184.071,0l-13.352,55.317Zm-551.259,0l184.071,0l13.352,-55.317l-184.071,0l-13.352,55.317Zm275.629,0l184.071,0l13.352,-55.317l-184.071,0l-13.352,55.317Zm20.029,-81.067l184.071,-0l11.444,-46.733l-184.071,-0l-11.444,46.733Zm275.629,-0l184.071,-0l11.445,-46.733l-184.071,-0l-11.445,46.733Zm-551.259,-0l184.071,-0l11.445,-46.733l-184.071,-0l-11.445,46.733Zm300.427,-100.143l-4.769,19.075l184.071,0l9.537,-38.149l-193.608,-0c5.087,5.086 6.676,11.444 4.769,19.074Zm275.629,0l-4.768,19.075l184.071,0l5.722,-20.982c0.636,-4.451 0.636,-10.173 -0,-17.167l-189.793,-0c5.086,5.086 6.676,11.444 4.768,19.074Zm-556.028,19.075l184.071,0l9.538,-38.149l-184.071,-0l-9.538,38.149Z" style="fill-rule:nonzero;"/><path d="M1141.66,580.825l54.363,-217.452l-204.1,0l-54.363,217.452l-82.975,-0l-15.26,60.085l370.05,0l15.26,-60.085l-82.975,-0Zm-147.829,-226.035l204.099,-0l16.214,-63.901l-204.1,0l-16.213,63.901Zm-1.908,-324.27l370.049,-0l7.63,-30.52l-370.049,-0l-7.63,30.52Zm21.936,243.202l204.099,0l13.353,-55.317l-204.1,0l-13.352,55.317Zm20.029,-81.067l204.099,-0l11.445,-46.733l-204.1,-0l-11.444,46.733Zm20.028,-81.068l204.099,0l9.538,-38.149l-204.1,-0l-9.537,38.149Z" style="fill-rule:nonzero;"/><path d="M1686.68,640.91l15.26,-60.085l-211.729,-0l54.363,-217.452l-184.071,0l-69.623,277.537l395.8,0Zm-324.27,-286.12l184.071,-0l16.214,-63.901l-184.071,0l-16.214,63.901Zm20.029,-81.068l184.071,0l13.352,-55.317l-184.071,0l-13.352,55.317Zm20.028,-81.067l184.071,-0l11.445,-46.733l-184.071,-0l-11.445,46.733Zm20.029,-81.068l184.071,0l9.537,-38.149l-184.071,-0l-9.537,38.149Zm20.982,-81.067l184.071,-0l7.63,-30.52l-184.071,0l-7.63,30.52Z" style="fill-rule:nonzero;"/><path d="M1868.96,640.91l271.814,0c8.902,0 19.87,-3.02 32.904,-9.06c13.034,-6.041 25.751,-13.67 38.149,-22.89c12.399,-9.219 23.367,-19.234 32.904,-30.043c9.538,-10.809 15.578,-20.664 18.121,-29.565l46.733,-185.979l-184.071,0l-46.733,184.071c-2.543,10.809 -9.537,18.598 -20.982,23.367c-11.445,4.768 -24.161,7.788 -38.149,9.06c-12.717,-1.272 -23.685,-4.292 -32.904,-9.06c-9.22,-4.769 -12.558,-12.558 -10.014,-23.367l46.733,-184.071l-184.071,0l-46.733,185.979c-2.544,8.901 -1.59,18.756 2.861,29.565c4.451,10.809 10.65,20.824 18.598,30.043c7.948,9.22 16.849,16.849 26.704,22.89c9.856,6.04 19.234,9.06 28.136,9.06Zm-27.659,-286.12l184.071,-0l16.214,-63.901l-184.071,0l-16.214,63.901Zm286.121,-0l184.071,-0l16.213,-63.901l-184.071,0l-16.213,63.901Zm182.163,-354.79l-288.982,-0c-8.9,1.907 -18.755,5.563 -29.565,10.968c-10.809,5.404 -21.618,11.922 -32.427,19.552l396.754,-0c-14.624,-16.532 -29.884,-26.705 -45.78,-30.52Zm-448.255,273.722l184.071,0l13.352,-55.317l-184.071,0l-13.352,55.317Zm286.12,0l184.071,0l13.353,-55.317l-184.071,0l-13.353,55.317Zm-266.092,-81.067l184.071,-0l11.445,-46.733l-184.071,-0l-11.445,46.733Zm286.121,-0l184.071,-0l11.444,-46.733l-184.07,-0l-11.445,46.733Zm24.797,-100.143l-4.769,19.075l184.071,0l5.723,-20.982c0.635,-4.451 0.635,-10.173 -0,-17.167l-189.794,-0c5.087,5.086 6.676,11.444 4.769,19.074Zm-285.167,-1.907l-5.722,20.982l184.07,0l4.769,-19.075c1.908,-7.63 6.358,-13.988 13.352,-19.074l-188.839,-0c-2.543,3.815 -4.292,7.153 -5.246,10.014l-2.384,7.153Z" style="fill-rule:nonzero;"/><path d="M1622.91,994.245c-1.887,6.291 -5.504,13.053 -10.852,20.288c-5.338,7.234 -11.629,14.311 -18.872,21.231c-7.234,6.92 -15.255,13.525 -24.062,19.816c-8.807,6.291 -17.3,11.638 -25.478,16.041l-121.726,0l59.447,-241.565c3.146,-10.695 0.158,-18.401 -8.964,-23.119c-9.121,-4.718 -19.973,-7.706 -32.555,-8.964c-13.839,1.258 -26.421,4.246 -37.744,8.964c-11.324,4.718 -18.558,12.424 -21.703,23.119l-59.448,241.565l-182.118,0l60.391,-243.453c1.887,-8.806 7.706,-18.556 17.457,-29.252c9.751,-10.694 20.917,-20.602 33.498,-29.724c12.582,-9.121 25.321,-16.67 38.217,-22.646c12.896,-5.977 23.748,-8.965 32.555,-8.965l267.987,0c8.805,0 18.084,2.988 27.836,8.965c9.751,5.976 18.401,13.525 25.95,22.646c7.549,9.122 13.525,19.03 17.929,29.724c4.403,10.695 5.661,20.445 3.774,29.252l-41.519,166.077Zm-499.173,137.768l13.21,-53.786l182.118,-0l-13.21,53.786l-182.118,-0Zm-16.042,61.335l12.267,-46.237l182.118,-0l-12.267,46.237l-182.118,-0Zm53.787,179.287c-6.92,0 -14.312,-1.887 -22.175,-5.662c-7.864,-3.774 -15.256,-8.807 -22.175,-15.098l416.134,0l-4.718,20.76l-367.066,0Zm-68.884,-117.952l10.379,-39.632l182.118,0l-10.38,39.632l-182.117,-0Zm-1.888,61.335c-2.516,-5.033 -4.403,-10.38 -5.661,-16.041c-1.259,-5.662 -1.259,-11.009 -0,-16.042l182.118,0c-1.259,6.92 0.157,12.267 4.246,16.042c4.088,3.774 9.75,6.605 16.985,8.492c7.234,1.887 15.255,3.146 24.062,3.775c8.807,0.629 17.3,0.943 25.478,0.943l205.708,0l-0.943,2.831l-451.993,0Zm327.435,-231.186l1.887,-6.605l108.516,-0c-8.807,4.403 -17.614,6.605 -26.421,6.605l-83.982,0Z" style="fill-rule:nonzero;"/><path d="M2014.77,932.91l25.477,-102.854c1.888,-7.549 0.944,-13.368 -2.83,-17.457c-3.775,-4.089 -9.279,-7.392 -16.514,-9.908c-7.234,-2.517 -15.255,-4.089 -24.062,-4.718c-8.807,-0.629 -17.3,-0.944 -25.478,-0.944l-184.005,0l15.098,-59.448l345.364,0c8.805,0 18.084,2.988 27.836,8.965c9.751,5.976 18.401,13.525 25.95,22.646c7.549,9.122 13.525,19.03 17.929,29.724c4.403,10.695 5.661,20.445 3.774,29.252l-60.391,243.453l-182.118,0l18.872,-79.263l-100.967,-0l-18.872,79.263l-182.118,0l11.323,-48.124c2.516,-8.807 8.493,-18.558 17.929,-29.252c9.436,-10.694 20.288,-20.602 32.555,-29.724c12.267,-9.122 24.848,-16.671 37.744,-22.647c12.896,-5.976 23.748,-8.964 32.555,-8.964l184.949,-0Zm-145.317,380.277l50.955,0l6.606,-29.252l182.117,0l-7.548,32.083l-451.993,0c-2.516,-5.033 -4.403,-10.38 -5.661,-16.041c-1.259,-5.662 -1.259,-11.009 -0,-16.042l182.118,0c-1.259,10.065 2.516,17.142 11.323,21.231c8.807,4.089 19.501,6.763 32.083,8.021Zm-186.836,-181.174l13.21,-53.786l182.118,-0l-13.21,53.786l-182.118,-0Zm283.085,-0l13.21,-53.786l182.118,-0l-13.21,53.786l-182.118,-0Zm-299.127,61.335l12.267,-46.237l182.118,-0l-12.267,46.237l-182.118,-0Zm283.085,-0l12.267,-46.237l182.118,-0l-12.267,46.237l-182.118,-0Zm-229.298,179.287c-6.92,0 -14.312,-1.887 -22.175,-5.662c-7.864,-3.774 -15.256,-8.807 -22.175,-15.098l416.134,0l-4.718,20.76l-367.066,0Zm-68.884,-117.952l10.379,-39.632l182.118,0l-10.38,39.632l-182.117,-0Zm283.084,-0l10.38,-39.632l182.118,0l-10.38,39.632l-182.118,-0Z" style="fill-rule:nonzero;"/><path d="M2728.33,1038.6c-1.258,5.032 -4.403,10.38 -9.436,16.041c-5.033,5.662 -11.009,11.324 -17.929,16.985l-445.387,0l83.039,-334.04l367.066,0c8.805,0 18.084,2.988 27.837,8.965c9.751,5.976 18.401,13.525 25.949,22.646c7.549,9.122 13.526,19.03 17.929,29.724c4.404,10.695 5.662,20.445 3.775,29.252l-52.843,210.427Zm-181.174,-1.887l50.955,-206.652c1.887,-7.549 0.944,-13.368 -2.831,-17.457c-3.774,-4.089 -9.279,-7.392 -16.513,-9.908c-7.234,-2.517 -15.255,-4.089 -24.062,-4.718c-8.807,-0.629 -17.3,-0.944 -25.478,-0.944l-23.59,0l-67.941,272.705l23.591,0c8.178,0 16.985,-0.314 26.421,-0.943c9.436,-0.62 18.243,-2.193 26.421,-4.719c8.178,-2.516 15.255,-5.818 21.232,-9.907c5.976,-4.09 9.908,-9.908 11.795,-17.457Zm114.177,63.222c5.025,5.033 10.058,10.222 15.098,15.57c5.033,5.347 9.436,10.851 13.211,16.513l-204.765,-0c-12.581,-1.887 -25.478,-2.831 -38.688,-2.831l-23.591,0l0,2.831l-182.118,-0l13.211,-53.786l438.782,-0c-5.033,4.403 -10.223,8.335 -15.57,11.795c-5.347,3.46 -10.537,6.763 -15.57,9.908Zm36.801,60.391l-8.492,33.027l-182.118,-0l8.492,-31.139c0.629,-3.775 0,-8.807 -1.887,-15.098l183.062,-0c1.258,8.177 1.572,12.581 0.943,13.21Zm-473.695,33.027l12.267,-46.237l182.118,-0l-12.267,46.237l-182.118,-0Zm-15.098,61.335l10.38,-39.632l182.118,0l-10.38,39.632l-182.118,-0Zm283.085,-0l10.38,-39.632l182.118,0l-10.38,39.632l-182.118,-0Zm-298.183,61.335l7.549,-32.083l182.118,0l-7.549,32.083l-182.118,0Zm283.085,0l7.549,-32.083l182.118,0l-7.549,32.083l-182.118,0Zm167.964,56.617l-182.118,0l4.718,-20.76l182.118,0l-4.718,20.76Zm-283.085,0l-182.118,0l4.718,-20.76l182.118,0l-4.718,20.76Z" style="fill-rule:nonzero;"/><path d="M3014.43,797.029l-133.05,0l15.098,-59.448l468.034,0l-15.098,59.448l-133.05,0l-67.94,274.592l-201.934,0l67.94,-274.592Zm-83.038,334.984l13.211,-53.786l201.933,-0l-13.21,53.786l-201.934,-0Zm-16.042,61.335l12.267,-46.237l201.934,-0l-12.267,46.237l-201.934,-0Zm-15.097,61.335l10.379,-39.632l201.934,0l-10.38,39.632l-201.933,-0Zm-15.098,61.335l7.549,-32.083l201.934,0l-7.549,32.083l-201.934,0Zm187.779,56.617l-201.934,0l4.719,-20.76l201.933,0l-4.718,20.76Z" style="fill-rule:nonzero;"/><path d="M3668.11,932.91l25.478,-102.854c1.887,-7.549 0.944,-13.368 -2.831,-17.457c-3.774,-4.089 -9.279,-7.392 -16.513,-9.908c-7.234,-2.517 -15.255,-4.089 -24.062,-4.718c-8.807,-0.629 -17.3,-0.944 -25.478,-0.944l-184.005,0l15.098,-59.448l345.363,0c8.805,0 18.084,2.988 27.837,8.965c9.751,5.976 18.401,13.525 25.949,22.646c7.549,9.122 13.526,19.03 17.929,29.724c4.404,10.695 5.662,20.445 3.775,29.252l-60.392,243.453l-182.118,0l18.873,-79.263l-100.967,-0l-18.873,79.263l-182.118,0l11.324,-48.124c2.516,-8.807 8.492,-18.558 17.928,-29.252c9.437,-10.694 20.288,-20.602 32.555,-29.724c12.267,-9.122 24.849,-16.671 37.745,-22.647c12.896,-5.976 23.747,-8.964 32.555,-8.964l184.948,-0Zm-145.317,380.277l50.956,0l6.605,-29.252l182.118,0l-7.549,32.083l-451.992,0c-2.516,-5.033 -4.404,-10.38 -5.662,-16.041c-1.258,-5.662 -1.258,-11.009 0,-16.042l182.118,0c-1.258,10.065 2.516,17.142 11.323,21.231c8.808,4.089 19.502,6.763 32.083,8.021Zm-186.836,-181.174l13.211,-53.786l182.118,-0l-13.211,53.786l-182.118,-0Zm283.085,-0l13.211,-53.786l182.118,-0l-13.211,53.786l-182.118,-0Zm-299.126,61.335l12.267,-46.237l182.118,-0l-12.267,46.237l-182.118,-0Zm283.085,-0l12.267,-46.237l182.118,-0l-12.267,46.237l-182.118,-0Zm-229.299,179.287c-6.92,0 -14.311,-1.887 -22.175,-5.662c-7.863,-3.774 -15.255,-8.807 -22.175,-15.098l416.135,0l-4.718,20.76l-367.067,0Zm-68.884,-117.952l10.38,-39.632l182.118,0l-10.38,39.632l-182.118,-0Zm283.085,-0l10.38,-39.632l182.118,0l-10.38,39.632l-182.118,-0Z" style="fill-rule:nonzero;"/><path d="M3991.96,737.581l182.118,0l-83.038,334.04l-182.118,0l83.038,-334.04Zm-98.136,394.432l13.211,-53.786l182.118,-0l-13.211,53.786l-182.118,-0Zm-16.042,61.335l12.267,-46.237l182.118,-0l-12.267,46.237l-182.118,-0Zm347.251,179.287l-391.6,0l4.718,-20.76l391.6,0l-4.718,20.76Zm-362.348,-117.952l10.379,-39.632l182.118,0l-10.379,39.632l-182.118,-0Zm377.446,58.504l-0.943,2.831l-391.601,0l7.549,-32.083l182.118,0l-6.606,29.252l209.483,0Z" style="fill-rule:nonzero;"/></svg>